<?xml version="1.0" encoding="UTF-8" standalone="no"?>
<svg
   width="700pt"
   height="700pt"
   version="1.1"
   viewBox="0 0 700 700"
   id="svg12"
   sodipodi:docname="noun-picture-4927946.svg"
   inkscape:version="1.2 (dc2aedaf03, 2022-05-15)"
   xmlns:inkscape="http://www.inkscape.org/namespaces/inkscape"
   xmlns:sodipodi="http://sodipodi.sourceforge.net/DTD/sodipodi-0.dtd"
   xmlns="http://www.w3.org/2000/svg"
   xmlns:svg="http://www.w3.org/2000/svg">
  <defs
     id="defs16" />
  <sodipodi:namedview
     id="namedview14"
     pagecolor="#ffffff"
     bordercolor="#000000"
     borderopacity="0.25"
     inkscape:showpageshadow="2"
     inkscape:pageopacity="0.0"
     inkscape:pagecheckerboard="true"
     inkscape:deskcolor="#d1d1d1"
     inkscape:document-units="pt"
     showgrid="false"
     inkscape:zoom="0.91714286"
     inkscape:cx="230.06231"
     inkscape:cy="444.85981"
     inkscape:window-width="1920"
     inkscape:window-height="1028"
     inkscape:window-x="0"
     inkscape:window-y="41"
     inkscape:window-maximized="1"
     inkscape:current-layer="g10" />
  <g
     id="g10"
     transform="translate(0,70.002)">
    <path
       d="M 350,560 C 275.738,560 204.52,530.5 152.01,477.988 99.498,425.48 69.998,354.258 69.998,279.998 c 0,-74.26 29.5,-145.48 82.012,-197.99 C 204.518,29.496 275.74,-0.004 350,-0.004 c 74.26,0 145.48,29.5 197.99,82.012 52.512,52.508 82.012,123.73 82.012,197.99 -0.0859,74.234 -29.613,145.4 -82.105,197.89 -52.492,52.492 -123.66,82.02 -197.89,82.105 z m 0,-516.92 c -62.836,0 -123.1,24.961 -167.53,69.391 -44.43,44.434 -69.391,104.7 -69.391,167.53 0,62.83 24.961,123.1 69.391,167.53 44.434,44.43 104.7,69.391 167.53,69.391 62.83,0 123.1,-24.961 167.53,-69.391 44.43,-44.434 69.391,-104.7 69.391,-167.53 -0.0742,-62.812 -25.059,-123.03 -69.473,-167.45 C 473.03,68.137 412.808,43.153 349.998,43.078 Z"
       id="path2"
       style="fill:#ffffff" />
    <path
       d="m 220.77,267.38 -92.465,92.465 c -5.4727,5.2852 -13.324,7.2891 -20.656,5.2773 -7.3359,-2.0078 -13.066,-7.7383 -15.078,-15.074 -2.0117,-7.3359 -0.0039,-15.188 5.2773,-20.66 l 107.69,-107.69 h 0.004 c 4.0391,-4.0391 9.5156,-6.3047 15.227,-6.3047 5.7109,0 11.188,2.2656 15.227,6.3047 l 258.46,258.46 c 5.2852,5.4727 7.293,13.324 5.2812,20.66 -2.0117,7.332 -7.7422,13.062 -15.078,15.074 -7.3359,2.0117 -15.188,0.004 -20.656,-5.2773 z"
       id="path4"
       style="fill:#ffffff" />
    <path
       d="m 485.54,286.31 c 4.0391,-4.0391 9.5156,-6.3086 15.227,-6.3086 5.7109,0 11.188,2.2695 15.227,6.3086 l 75.383,75.383 h 0.004 c 5.2812,5.4727 7.2891,13.324 5.2773,20.656 -2.0117,7.3359 -7.7422,13.066 -15.074,15.078 -7.3359,2.0117 -15.188,0.004 -20.66,-5.2773 l -60.156,-60.16 -92.465,92.465 c -5.4727,5.2852 -13.324,7.293 -20.656,5.2812 -7.3359,-2.0117 -13.066,-7.7422 -15.078,-15.078 -2.0117,-7.3359 -0.004,-15.188 5.2773,-20.656 z"
       id="path6"
       style="fill:#ffffff" />
    <path
       d="m 463.08,150.77 c 0,14.867 -12.055,26.922 -26.926,26.922 -14.867,0 -26.922,-12.055 -26.922,-26.922 0,-14.871 12.055,-26.922 26.922,-26.922 14.871,0 26.926,12.051 26.926,26.922"
       id="path8"
       style="fill:#ffffff" />
  </g>
</svg>
