<?xml version="1.0" encoding="UTF-8" standalone="no"?>
<svg
   version="1.2"
   viewBox="0 0 20 20"
   width="48"
   height="48"
   id="svg8"
   sodipodi:docname="en-fun.svg"
   inkscape:version="1.1.1 (3bf5ae0d25, 2021-09-20, custom)"
   xmlns:inkscape="http://www.inkscape.org/namespaces/inkscape"
   xmlns:sodipodi="http://sodipodi.sourceforge.net/DTD/sodipodi-0.dtd"
   xmlns="http://www.w3.org/2000/svg"
   xmlns:svg="http://www.w3.org/2000/svg"
   xmlns:rdf="http://www.w3.org/1999/02/22-rdf-syntax-ns#"
   xmlns:cc="http://creativecommons.org/ns#"
   xmlns:dc="http://purl.org/dc/elements/1.1/">
  <defs
     id="defs12" />
  <sodipodi:namedview
     id="namedview10"
     pagecolor="#505050"
     bordercolor="#ffffff"
     borderopacity="1"
     inkscape:pageshadow="0"
     inkscape:pageopacity="0"
     inkscape:pagecheckerboard="1"
     showgrid="false"
     inkscape:zoom="9.09375"
     inkscape:cx="22.487972"
     inkscape:cy="42.391753"
     inkscape:window-width="2560"
     inkscape:window-height="1440"
     inkscape:window-x="0"
     inkscape:window-y="0"
     inkscape:window-maximized="1"
     inkscape:current-layer="svg8" />
  <title
     id="title2">english-svg</title>
  <style
     id="style4">tspan { white-space:pre }.shp0 { fill: #ffffff } </style>
  <metadata
     id="metadata829">
    <rdf:RDF>
      <cc:Work
         rdf:about="">
        <dc:title>english-svg</dc:title>
      </cc:Work>
    </rdf:RDF>
  </metadata>
  <path
     d="m 10,0.9999995 c -4.9680002,0 -9.00000015,4.032001 -9.00000015,9.0000005 0,4.968 4.03199995,9.000001 9.00000015,9 4.967999,0 9,-4.032 9,-9 0,-4.9679995 -4.032001,-9.0000005 -9,-9.0000005 z m -0.4247498,0.74617 c 0.005,-2.8e-4 0.0102,2.2e-4 0.0153,0 l 0.0383,0.61034 c -0.5191,0.0247 -1.0243401,0.10045 -1.5114801,0.22385 l 0.15115,0.59502 c -1.27866,0.323881 -2.41757,0.997251 -3.3099503,1.913271 l -0.43814,-0.42857 c -0.35635,0.36558 -0.67493,0.76715 -0.95281,1.1977 l -0.51275,-0.33865 c 1.40043,-2.16532 3.7858603,-3.634191 6.5204003,-3.772961 z m 0.8341898,0 c 2.740903,0.13408 5.13269,1.603631 6.535713,3.772961 l -0.512755,0.33865 c -0.277249,-0.42947 -0.595542,-0.83098 -0.950893,-1.19579 l -0.438137,0.42666 c -0.892527,-0.91651 -2.032758,-1.58928 -3.311863,-1.913271 l 0.151148,-0.59502 c -0.48714,-0.1234 -0.992383,-0.19911 -1.511483,-0.22385 z M 10,4.4438805 c 0.2602,-6e-4 0.52041,0.0153 0.73469,0.0459 l -0.33482,2.78571 c 0.70379,0.10263 1.320838,0.47097 1.746814,1.00064 l 2.234693,-1.67602 c 0.271443,0.33815 0.579172,0.86864 0.740435,1.27041 l -2.567603,1.09821 c 0.129057,0.31885 0.200893,0.6663 0.200893,1.03125 0,0.3515895 -0.06536,0.6875595 -0.185587,0.9968095 l 2.546556,1.08865 c -0.157127,0.40415 -0.461646,0.93369 -0.728954,1.27423 l -2.219388,-1.66071 c -0.425409,0.54177 -1.049529,0.9201 -1.762119,1.02551 l 0.32908,2.7398 c -0.42857,0.066 -1.0408099,0.0651 -1.4693799,0.004 l 0.32908,-2.74363 c -0.71311,-0.10548 -1.33669,-0.48502 -1.76212,-1.02742 l -2.21365,1.66071 C 5.3471798,13.01978 5.0394498,12.48929 4.8781898,12.08752 l 2.5522903,-1.09247 c -0.11981,-0.30879 -0.18558,-0.64394 -0.18558,-0.9949 0,-0.3655795 0.0714,-0.7138595 0.20089,-1.0331595 l -2.5618603,-1.09439 c 0.15713,-0.40415 0.46164,-0.93369 0.7289503,-1.27424 l 2.24044,1.67794 c 0.42597,-0.52967 1.04302,-0.89801 1.74681,-1.00064 l -0.33482,-2.78189 c 0.21428,-0.033 0.47449,-0.0491 0.7346899,-0.0497 z m -7.3545901,1.78316 0.55102,0.27169 c -0.2324,0.45055 -0.42242,0.92623 -0.5625,1.42346 l 0.58928,0.16646 c -0.17131,0.60796 -0.26403,1.24884 -0.26403,1.9113495 0,0.66315 0.0924,1.30478 0.26403,1.91327 l -0.58928,0.16645 c 0.13999,0.49643 0.33038,0.9717 0.5625,1.42156 l -0.55102,0.27168 C 2.0634599,12.64162 1.7346898,11.35903 1.7346898,10 c 0,-1.3590195 0.3287701,-2.6416195 0.9107201,-3.7729595 z m 14.7091821,0 c 0.581945,1.13134 0.910713,2.41394 0.910713,3.7729595 0,1.35903 -0.328768,2.64162 -0.910713,3.77296 l -0.551021,-0.27168 c 0.232215,-0.45 0.422467,-0.92497 0.562501,-1.42156 L 16.776785,11.91327 C 16.948421,11.30478 17.040817,10.66315 17.040817,10 c 0,-0.6625095 -0.09272,-1.3033895 -0.264032,-1.9113495 l 0.589287,-0.16646 c -0.140045,-0.49709 -0.330195,-0.97302 -0.562501,-1.42346 z M 3.5675999,14.14222 c 0.27798,0.43054 0.59645,0.83211 0.9528099,1.1977 l 0.4381401,-0.42857 c 0.8923802,0.91602 2.0312903,1.58939 3.3099503,1.91327 l -0.15115,0.595023 c 0.48714,0.123401 0.99238,0.199103 1.51148,0.223852 l -0.0383,0.610332 C 6.8496302,18.119747 4.4578399,16.6502 3.0548199,14.48087 Z m 12.8667111,0 0.510842,0.33865 c -1.403023,2.16933 -3.79481,3.638877 -6.535713,3.772957 l -0.0383,-0.610332 c 0.5191,-0.02475 1.024343,-0.100451 1.511483,-0.223852 L 11.731475,16.82462 c 1.279105,-0.32399 2.419336,-0.99676 3.311863,-1.91327 l 0.438137,0.42666 c 0.355796,-0.36527 0.675219,-0.76574 0.952806,-1.19579 z"
     style="display:inline;fill:#fffffe;fill-opacity:1;stroke:none;stroke-width:0.0899999;stroke-miterlimit:4;stroke-dasharray:none;stroke-dashoffset:1.8;stroke-opacity:1"
     id="p1" />
</svg>
