<?xml version="1.0" encoding="UTF-8" standalone="no"?>
<svg
   version="1.2"
   viewBox="0 0 20 20"
   width="48"
   height="48"
   id="svg8"
   sodipodi:docname="no-fun.svg"
   inkscape:version="1.1.1 (3bf5ae0d25, 2021-09-20, custom)"
   xmlns:inkscape="http://www.inkscape.org/namespaces/inkscape"
   xmlns:sodipodi="http://sodipodi.sourceforge.net/DTD/sodipodi-0.dtd"
   xmlns="http://www.w3.org/2000/svg"
   xmlns:svg="http://www.w3.org/2000/svg"
   xmlns:rdf="http://www.w3.org/1999/02/22-rdf-syntax-ns#"
   xmlns:cc="http://creativecommons.org/ns#"
   xmlns:dc="http://purl.org/dc/elements/1.1/">
  <defs
     id="defs12">
    <style
       id="style927">.a{isolation:isolate;}</style>
  </defs>
  <sodipodi:namedview
     id="namedview10"
     pagecolor="#505050"
     bordercolor="#ffffff"
     borderopacity="1"
     inkscape:pageshadow="0"
     inkscape:pageopacity="0"
     inkscape:pagecheckerboard="1"
     showgrid="false"
     inkscape:zoom="9.09375"
     inkscape:cx="18.089347"
     inkscape:cy="25.676976"
     inkscape:window-width="2560"
     inkscape:window-height="1440"
     inkscape:window-x="0"
     inkscape:window-y="0"
     inkscape:window-maximized="1"
     inkscape:current-layer="svg8" />
  <title
     id="title2">english-svg</title>
  <style
     id="style4">tspan { white-space:pre }.shp0 { fill: #ffffff } </style>
  <metadata
     id="metadata829">
    <rdf:RDF>
      <cc:Work
         rdf:about="">
        <dc:title>english-svg</dc:title>
      </cc:Work>
    </rdf:RDF>
  </metadata>
  <g
     id="g965"
     transform="matrix(0.20454537,0,0,0.27204529,-0.65002842,-7.9518979)"
     style="fill:#ffffff;fill-opacity:1">
    <g
       id="g1134"
       style="fill:#ffffff;fill-opacity:1">
      <path
         d="m 87.636827,62.881364 a 56.77,56.77 0 0 0 5.59,-27.07 2.75,2.75 0 1 0 -5.5,0 c 0,7.89 -4,13.35 -8.1,16.87 a 40.27,40.27 0 0 1 8.01,10.2 z"
         id="path933"
         style="fill:#ffffff;fill-opacity:1" />
      <path
         d="m 25.666827,51.671364 c -4.87,-3.52 -9.29,-8.68 -9.29,-15.86 a 2.74,2.74 0 1 0 -5.47,0 56.91,56.91 0 0 0 5.57,27.11 39.74,39.74 0 0 1 9.19,-11.25 z"
         id="path935"
         style="fill:#ffffff;fill-opacity:1" />
      <path
         d="m 17.696827,65.201364 a 38.34,38.34 0 0 0 -4.07,15.21 h 30.79 v -35.57 a 38.59,38.59 0 0 0 -26.72,20.36 z"
         id="path937"
         style="fill:#ffffff;fill-opacity:1" />
      <path
         d="m 86.416827,65.171364 v 0 a 38.43,38.43 0 0 0 -26.7,-20.32 v 35.56 h 30.79 a 38.08,38.08 0 0 0 -4.09,-15.24 z"
         id="path939"
         style="fill:#ffffff;fill-opacity:1" />
      <path
         d="m 8.0668273,85.311364 v 5.49 a 2.75,2.75 0 0 0 2.7499997,2.75 h 33.6 v -11 h -33.6 a 2.75,2.75 0 0 0 -2.7499997,2.76 z"
         id="path941"
         style="fill:#ffffff;fill-opacity:1" />
      <path
         d="m 93.316827,82.561364 h -33.6 v 11 h 33.6 a 2.75,2.75 0 0 0 2.75,-2.76 v -5.49 a 2.75,2.75 0 0 0 -2.75,-2.75 z"
         id="path943"
         style="fill:#ffffff;fill-opacity:1" />
      <path
         d="m 54.816827,38.561364 h -5.5 a 2.75,2.75 0 0 0 -2.75,2.75 v 55 a 2.76,2.76 0 0 0 2.75,2.76 h 5.5 a 2.76,2.76 0 0 0 2.75,-2.76 v -55 a 2.75,2.75 0 0 0 -2.75,-2.75 z"
         id="path945"
         style="fill:#ffffff;fill-opacity:1" />
    </g>
  </g>
</svg>
