<?xml version="1.0" encoding="UTF-8" standalone="no"?>
<svg
   version="1.2"
   viewBox="0 0 20 20"
   width="48"
   height="48"
   id="svg8"
   sodipodi:docname="no.svg"
   inkscape:version="1.1.1 (3bf5ae0d25, 2021-09-20, custom)"
   xmlns:inkscape="http://www.inkscape.org/namespaces/inkscape"
   xmlns:sodipodi="http://sodipodi.sourceforge.net/DTD/sodipodi-0.dtd"
   xmlns="http://www.w3.org/2000/svg"
   xmlns:svg="http://www.w3.org/2000/svg"
   xmlns:rdf="http://www.w3.org/1999/02/22-rdf-syntax-ns#"
   xmlns:cc="http://creativecommons.org/ns#"
   xmlns:dc="http://purl.org/dc/elements/1.1/">
  <defs
     id="defs12" />
  <sodipodi:namedview
     id="namedview10"
     pagecolor="#505050"
     bordercolor="#ffffff"
     borderopacity="1"
     inkscape:pageshadow="0"
     inkscape:pageopacity="0"
     inkscape:pagecheckerboard="1"
     showgrid="false"
     inkscape:zoom="18.1875"
     inkscape:cx="24"
     inkscape:cy="24"
     inkscape:window-width="2560"
     inkscape:window-height="1440"
     inkscape:window-x="0"
     inkscape:window-y="0"
     inkscape:window-maximized="1"
     inkscape:current-layer="svg8" />
  <title
     id="title2">english-svg</title>
  <style
     id="style4">tspan { white-space:pre }.shp0 { fill: #ffffff } </style>
  <metadata
     id="metadata829">
    <rdf:RDF>
      <cc:Work
         rdf:about="">
        <dc:title>english-svg</dc:title>
      </cc:Work>
    </rdf:RDF>
  </metadata>
  <g
     id="g900"
     transform="matrix(0.41666667,0,0,0.27272727,0.99999999,1.0000001)"
     style="fill:#fffffd;fill-opacity:1">
    <g
       data-name="Calque 2"
       id="g883"
       transform="scale(0.65454545,1)"
       style="fill:#fffffd;fill-opacity:1">
      <g
         data-name="Calque 1"
         id="g881"
         style="fill:#fffffd;fill-opacity:1">
        <path
           d="M 57.3,0 H 8.71 A 8.71,8.71 0 0 0 0,8.7 V 57.29 A 8.72,8.72 0 0 0 8.71,66 H 57.3 A 8.71,8.71 0 0 0 66,57.29 V 8.7 A 8.71,8.71 0 0 0 57.3,0 Z M 29,41 V 64 H 25 V 37 h 39 v 4 z M 2,41 V 37 H 17 V 64 H 13 V 41 Z M 13,25 V 2 h 4 V 29 H 2 v -4 z m 12,4 V 2 h 4 v 23 h 35 v 4 z"
           id="path879"
           style="fill:#fffffd;fill-opacity:1" />
      </g>
    </g>
  </g>
</svg>
